<svg xmlns="http://www.w3.org/2000/svg" width="48" height="48" viewBox="0 0 1024 1024" fill="none">
  <path d="M950.897571 126.101877V361.970647a36.436964 36.436964 0 1 0 72.815929 0V38.036963a36.464964 36.464964 0 0 0-36.379964-36.436965H663.515852a36.436964 36.436964 0 1 0 0 72.816929h235.86877L592.011922 381.958627a36.464964 36.464964 0 1 0 51.628949 51.51395zM381.844127 592.127422L74.358427 899.612121V673.910342a36.493964 36.493964 0 0 0-72.986928 0v313.652694A36.464964 36.464964 0 0 0 37.807463 1024H350.890157a36.436964 36.436964 0 0 0 0-72.816929H125.873377l307.4847-307.5417a36.422964 36.422964 0 0 0-51.51395-51.513949zM36.551464 398.349611a36.464964 36.464964 0 0 0 36.379965-36.379964V132.95487c0-49.685951 47.115954-60.136941 86.636915-60.136941h191.435813a36.436964 36.436964 0 0 0 0-72.816929H159.568344C61.22344 0.001 0.1145 50.94395 0.1145 132.95487V361.970647a36.393964 36.393964 0 0 0 36.436964 36.379964z m950.897072 239.123766a36.464964 36.464964 0 0 0-36.436965 36.436965v217.135788c0 49.685951-47.115954 60.079941-86.579915 60.079941H663.514852a36.436964 36.436964 0 1 0 0 72.816929h200.916804c98.344904 0 159.453844-50.94295 159.453844-132.95387v-217.079788a36.393964 36.393964 0 0 0-36.436964-36.435965z" fill="#F4F4F2"/>
</svg>
